<mxfile host="app.diagrams.net" modified="2023-06-29T09:32:26.003Z" agent="Mozilla/5.0 (Windows NT 10.0; Win64; x64) AppleWebKit/537.36 (KHTML, like Gecko) Chrome/114.0.0.0 Safari/537.36" version="21.5.2" etag="xoMzrzPbATBcUXNZ_iR5" type="github">
  <diagram name="Sayfa -1" id="B3HJW1qY4KNnV15-LGAk">
    <mxGraphModel>
      <root>
        <mxCell id="0" />
        <mxCell id="1" parent="0" />
      </root>
    </mxGraphModel>
  </diagram>
</mxfile>
